<?xml version="1.0" encoding="UTF-8"?>
<svg version="1.1" xmlns="http://www.w3.org/2000/svg" width="792" height="167">
<path d="M0 0 C5.10687454 1.53206236 7.73571197 3.75034445 10.75 8.125 C12.71160224 12.36937361 14.30017565 16.68198988 15.75 21.125 C16.57242188 21.15078125 17.39484375 21.1765625 18.2421875 21.203125 C34.69307634 22.03896693 46.37872349 29.49171251 57.75 41.125 C71.03329099 56.4844351 79.71334932 73.91284817 84.5 93.625 C84.79813599 94.85101929 84.79813599 94.85101929 85.10229492 96.10180664 C88.3082741 110.12813733 89.05143954 123.7678277 88.95581055 138.09106445 C88.93723873 140.97811479 88.93530367 143.86484853 88.93554688 146.75195312 C88.93064145 148.59114863 88.92481744 150.43034196 88.91796875 152.26953125 C88.91685593 153.13085159 88.9157431 153.99217194 88.91459656 154.8795929 C88.86617786 160.89264427 88.86617786 160.89264427 87.75 163.125 C49.47 163.125 11.19 163.125 -28.25 163.125 C-28.25 144.21903405 -18.20214699 130.21370096 -7.08642578 115.78466797 C-2.59145886 109.88728133 0.61748563 104.59959483 1.75 97.125 C-14.27817804 104.60271298 -23.10430459 115.83061226 -32.11181641 130.53369141 C-33.25 132.125 -33.25 132.125 -35.25 133.125 C-38.66548242 133.20963142 -41.92608157 132.92146608 -45.25 132.125 C-46.054375 131.3 -46.85875 130.475 -47.6875 129.625 C-51.18874299 126.20915318 -53.87985781 126.60149863 -58.609375 126.3359375 C-65.72708118 125.76736334 -69.20933192 121.29217497 -73.61328125 116.18359375 C-76.61145082 112.4126263 -76.56870887 109.93417409 -76.25 105.125 C-75.42579938 101.96494829 -74.266714 98.97044376 -73.0625 95.9375 C-72.54151733 94.59727783 -72.54151733 94.59727783 -72.01000977 93.22998047 C-66.37234856 79.04971492 -59.67578213 65.26752892 -53.03515625 51.53515625 C-51.37448824 48.09302858 -49.78792801 44.62410052 -48.25 41.125 C-47.74597656 39.99707031 -47.24195312 38.86914062 -46.72265625 37.70703125 C-42.24649817 26.33684576 -42.73960109 15.17512559 -43.25 3.125 C-31.85511639 2.89245135 -22.41400244 6.06300666 -12.25 11.125 C-11.85167969 10.58230469 -11.45335938 10.03960937 -11.04296875 9.48046875 C-10.51316406 8.76503906 -9.98335938 8.04960937 -9.4375 7.3125 C-8.91542969 6.60480469 -8.39335938 5.89710937 -7.85546875 5.16796875 C-3.91247061 0.15047964 -3.91247061 0.15047964 0 0 Z " fill="#AC6AFF" transform="translate(78.25,1.875)"/>
<path d="M0 0 C5.10687454 1.53206236 7.73571197 3.75034445 10.75 8.125 C12.71160224 12.36937361 14.30017565 16.68198988 15.75 21.125 C16.57242188 21.15078125 17.39484375 21.1765625 18.2421875 21.203125 C34.69307634 22.03896693 46.37872349 29.49171251 57.75 41.125 C71.03329099 56.4844351 79.71334932 73.91284817 84.5 93.625 C84.79813599 94.85101929 84.79813599 94.85101929 85.10229492 96.10180664 C88.3082741 110.12813733 89.05143954 123.7678277 88.95581055 138.09106445 C88.93723873 140.97811479 88.93530367 143.86484853 88.93554688 146.75195312 C88.93064145 148.59114863 88.92481744 150.43034196 88.91796875 152.26953125 C88.91685593 153.13085159 88.9157431 153.99217194 88.91459656 154.8795929 C88.86617786 160.89264427 88.86617786 160.89264427 87.75 163.125 C49.47 163.125 11.19 163.125 -28.25 163.125 C-28.25 144.21903405 -18.20214699 130.21370096 -7.08642578 115.78466797 C-2.59145886 109.88728133 0.61748563 104.59959483 1.75 97.125 C-14.27817804 104.60271298 -23.10430459 115.83061226 -32.11181641 130.53369141 C-33.25 132.125 -33.25 132.125 -35.25 133.125 C-38.66548242 133.20963142 -41.92608157 132.92146608 -45.25 132.125 C-46.054375 131.3 -46.85875 130.475 -47.6875 129.625 C-51.18874299 126.20915318 -53.87985781 126.60149863 -58.609375 126.3359375 C-65.72708118 125.76736334 -69.20933192 121.29217497 -73.61328125 116.18359375 C-76.61145082 112.4126263 -76.56870887 109.93417409 -76.25 105.125 C-75.42579938 101.96494829 -74.266714 98.97044376 -73.0625 95.9375 C-72.54151733 94.59727783 -72.54151733 94.59727783 -72.01000977 93.22998047 C-66.37234856 79.04971492 -59.67578213 65.26752892 -53.03515625 51.53515625 C-51.37448824 48.09302858 -49.78792801 44.62410052 -48.25 41.125 C-47.74597656 39.99707031 -47.24195312 38.86914062 -46.72265625 37.70703125 C-42.24649817 26.33684576 -42.73960109 15.17512559 -43.25 3.125 C-31.85511639 2.89245135 -22.41400244 6.06300666 -12.25 11.125 C-11.85167969 10.58230469 -11.45335938 10.03960937 -11.04296875 9.48046875 C-10.51316406 8.76503906 -9.98335938 8.04960937 -9.4375 7.3125 C-8.91542969 6.60480469 -8.39335938 5.89710937 -7.85546875 5.16796875 C-3.91247061 0.15047964 -3.91247061 0.15047964 0 0 Z M-1.25 14.125 C-3.64820305 16.76184747 -3.64820305 16.76184747 -4.25 20.125 C-8.06183719 22.1044116 -11.99976977 23.79082617 -15.9375 25.5 C-17.99118059 26.39342024 -20.04355519 27.28769145 -22.08764648 28.20288086 C-23.58134303 28.83985634 -25.09962815 29.42103374 -26.63305664 29.95532227 C-30.78011588 31.49490579 -33.48202776 32.69009839 -35.53515625 36.73046875 C-36.15599639 38.24649348 -36.74636765 39.77520769 -37.3125 41.3125 C-38.04545795 43.10818736 -38.78561445 44.90094596 -39.53125 46.69140625 C-40.15386719 48.20178467 -40.15386719 48.20178467 -40.7890625 49.74267578 C-43.39996691 55.78737326 -46.34127365 61.67281428 -49.24679565 67.58007812 C-54.00896535 77.2765162 -58.76742063 86.98322958 -63.25 96.8125 C-63.56976807 97.49328613 -63.88953613 98.17407227 -64.21899414 98.87548828 C-65.96094402 102.7708008 -66.69816172 105.86439405 -66.25 110.125 C-63.53840082 114.78895059 -60.33471457 116.51930066 -55.25 118.125 C-51.20057728 117.93217035 -48.64816808 116.21618036 -45.25 114.125 C-43.27 113.63 -43.27 113.63 -41.25 113.125 C-41.58 116.095 -41.91 119.065 -42.25 122.125 C-39.91659318 122.13769345 -39.91659318 122.13769345 -37.25 121.125 C-35.37689539 118.9153219 -33.81995905 116.84395286 -32.25 114.4375 C-27.55014459 107.45380861 -22.92411748 101.33398303 -16.1875 96.125 C-15.62820801 95.68913574 -15.06891602 95.25327148 -14.49267578 94.80419922 C-10.71882086 91.9565867 -7.0207071 90.05528433 -2.625 88.25 C1.57438029 86.31178456 1.57438029 86.31178456 3.953125 82.515625 C4.40678709 80.47942071 4.79481212 78.42764315 5.12109375 76.3671875 C6.4818256 69.35223448 10.10166244 61.66939303 15.75 57.125 C17.07 57.125 18.39 57.125 19.75 57.125 C19.20615747 62.75095725 18.06707453 67.56676552 16.1875 72.875 C14.18176818 78.85478286 13.53258324 83.72769243 13.81640625 90.06640625 C13.46838059 106.09605893 4.29477276 119.54551558 -4.55126953 132.16870117 C-11.34675874 141.3879581 -11.34675874 141.3879581 -14.25 152.125 C15.78 152.125 45.81 152.125 76.75 152.125 C76.75 107.68821106 73.24658455 75.51854292 42.75 44.125 C34.92120007 36.55716007 28.71583132 33.53895987 17.8125 33.375 C16.3574707 33.33052734 16.3574707 33.33052734 14.87304688 33.28515625 C12.49861702 33.21497606 10.12513914 33.16202676 7.75 33.125 C5.95297823 29.05409313 4.33890295 25.1011791 3.125 20.8125 C2.15042317 17.38576393 2.15042317 17.38576393 0.75 14.125 C0.09 14.125 -0.57 14.125 -1.25 14.125 Z " fill="#FCF8FF" transform="translate(78.25,1.875)"/>
<path d="M0 0 C0 5.61 0 11.22 0 17 C3.63 17 7.26 17 11 17 C11 21.29 11 25.58 11 30 C7.37 30 3.74 30 0 30 C0.11380498 33.91728722 0.24056338 37.83341307 0.375 41.75 C0.4059375 42.86117187 0.436875 43.97234375 0.46875 45.1171875 C0.50742187 46.18710938 0.54609375 47.25703125 0.5859375 48.359375 C0.6173584 49.34389648 0.6487793 50.32841797 0.68115234 51.34277344 C1.00102258 54.00852201 1.64368621 55.70616405 3 58 C5.64 58 8.28 58 11 58 C11 62.62 11 67.24 11 72 C7.88613918 73.55693041 4.60255068 73.22567195 1.1875 73.25 C0.47529297 73.270625 -0.23691406 73.29125 -0.97070312 73.3125 C-5.54034751 73.3463179 -8.54273292 73.06508146 -12 70 C-17.39896031 62.58102052 -16.45379717 54.259433 -16.25 45.5 C-16.22990494 43.99481542 -16.21165948 42.48960495 -16.1953125 40.984375 C-16.15155298 37.32237263 -16.08269216 33.66135422 -16 30 C-18.64 30 -21.28 30 -24 30 C-24.33 30.66 -24.66 31.32 -25 32 C-25.99 31.505 -26.98 31.01 -28 30.5 C-32.16707023 28.70077619 -35.49360861 28.69448194 -40 29 C-40.66 29.33 -41.32 29.66 -42 30 C-41.94211397 32.43772332 -41.94211397 32.43772332 -41 35 C-38.48559649 36.48808147 -38.48559649 36.48808147 -35.375 37.4375 C-29.59202565 39.61559284 -23.91290183 42.17419633 -21 48 C-20.5216634 54.11643518 -20.10826559 59.93117618 -22.5625 65.625 C-29.0949164 71.98991854 -35.60305359 73.18091445 -44.375 73.1875 C-45.22578125 73.19974609 -46.0765625 73.21199219 -46.953125 73.22460938 C-48.19449219 73.22750977 -48.19449219 73.22750977 -49.4609375 73.23046875 C-50.21165527 73.23457764 -50.96237305 73.23868652 -51.73583984 73.24291992 C-54 73 -54 73 -59 71 C-59 66.05 -59 61.1 -59 56 C-57.35 56.66 -55.7 57.32 -54 58 C-48.99667171 59.81821982 -45.28800605 60.56657208 -40 60 C-39.01 59.34 -38.02 58.68 -37 58 C-37.23186494 56.04778737 -37.23186494 56.04778737 -38 54 C-40.65656861 52.60552213 -43.15958682 51.46023488 -45.9375 50.375 C-53.79093886 47.20906114 -53.79093886 47.20906114 -56 45 C-56.33 46.65 -56.66 48.3 -57 50 C-67.56 50 -78.12 50 -89 50 C-86.8455044 56.5628247 -86.8455044 56.5628247 -84.20703125 58.41796875 C-76.6956813 60.39883803 -68.75545988 59.77048924 -62 56 C-62 60.62 -62 65.24 -62 70 C-68.0392707 72.61101497 -72.94636 73.49535717 -79.5 73.4375 C-80.30308594 73.45748047 -81.10617187 73.47746094 -81.93359375 73.49804688 C-88.69293871 73.49256929 -93.72365595 71.64553518 -98.98828125 67.39453125 C-105.56512806 59.53723639 -106.58110836 51.85635423 -106.34765625 41.7265625 C-105.55120774 33.18935034 -102.57947665 25.67036863 -96 20 C-89.35603689 14.67214414 -81.11861241 15.12159276 -73 16 C-67.46703451 17.55122121 -64.25268953 20.24606914 -61 25 C-60.34 25.66 -59.68 26.32 -59 27 C-58.46375 26.0925 -57.9275 25.185 -57.375 24.25 C-54.54125179 19.98425091 -50.83722919 17.61240973 -46 16 C-43.17700653 15.90155715 -40.38494495 15.85878903 -37.5625 15.875 C-36.76150879 15.87693359 -35.96051758 15.87886719 -35.13525391 15.88085938 C-28.71483673 15.9271883 -22.3892756 16.34468968 -16 17 C-16 13.04 -16 9.08 -16 5 C-2.81818182 0 -2.81818182 0 0 0 Z M-88 33 C-88.33 34.98 -88.66 36.96 -89 39 C-83.72 39 -78.44 39 -73 39 C-72.39447817 33.19373094 -72.39447817 33.19373094 -75.1875 30.125 C-77.77271387 27.88357969 -77.77271387 27.88357969 -80.5 27.375 C-84.19387957 28.29846989 -85.67814335 30.03318317 -88 33 Z " fill="#FFFFFF" transform="translate(699,51)"/>
<path d="M0 0 C0.91007812 0.00902344 1.82015625 0.01804687 2.7578125 0.02734375 C3.80582031 0.04474609 3.80582031 0.04474609 4.875 0.0625 C5.37 4.5175 5.37 4.5175 5.875 9.0625 C6.39449219 8.58039063 6.91398437 8.09828125 7.44921875 7.6015625 C8.14660156 6.96992187 8.84398437 6.33828125 9.5625 5.6875 C10.24699219 5.06101562 10.93148437 4.43453125 11.63671875 3.7890625 C18.19363914 -1.26880628 26.00171915 -0.59848745 33.875 0.0625 C40.41170784 1.71398292 43.43404986 5.47095603 46.875 11.0625 C47.205 7.7625 47.535 4.4625 47.875 1.0625 C62.065 1.0625 76.255 1.0625 90.875 1.0625 C90.875 12.30948297 90.875 12.30948297 88.34765625 15.51953125 C87.8064917 16.23383301 87.26532715 16.94813477 86.70776367 17.68408203 C86.12357666 18.40708496 85.53938965 19.13008789 84.9375 19.875 C83.74624948 21.43011212 82.55615342 22.98610924 81.3671875 24.54296875 C80.77647461 25.3014209 80.18576172 26.05987305 79.57714844 26.84130859 C77.12210183 30.04498244 74.83443566 33.3527443 72.5625 36.6875 C70.7371875 39.348125 70.7371875 39.348125 68.875 42.0625 C79.765 42.5575 79.765 42.5575 90.875 43.0625 C90.875 47.3525 90.875 51.6425 90.875 56.0625 C75.695 56.0625 60.515 56.0625 44.875 56.0625 C44.875 55.4025 44.875 54.7425 44.875 54.0625 C43.7509375 54.54847656 42.626875 55.03445312 41.46875 55.53515625 C36.7187576 57.30908607 32.40619595 57.54441666 27.375 57.5 C26.57191406 57.51998047 25.76882813 57.53996094 24.94140625 57.56054688 C18.18681908 57.55507314 13.11056096 55.73231454 7.88671875 51.421875 C0.0933178 41.95024906 0.25193078 32.80495831 0.875 21.0625 C1.06481445 20.34416992 1.25462891 19.62583984 1.45019531 18.88574219 C1.59038086 18.28407227 1.73056641 17.68240234 1.875 17.0625 C0.78145094 15.76725652 0.78145094 15.76725652 -1.875 15.6875 C-6.18990097 16.18537319 -7.4641414 17.71742062 -10.125 21.0625 C-11.42285126 24.68847146 -11.33187186 28.4163192 -11.44140625 32.234375 C-11.46218735 32.9167926 -11.48296844 33.59921021 -11.50437927 34.30230713 C-11.56952052 36.47227356 -11.62859404 38.64235624 -11.6875 40.8125 C-11.73071897 42.28777221 -11.77433432 43.76303287 -11.81835938 45.23828125 C-11.92590811 48.84623699 -12.02524352 52.45428678 -12.125 56.0625 C-17.405 56.0625 -22.685 56.0625 -28.125 56.0625 C-28.125 37.9125 -28.125 19.7625 -28.125 1.0625 C-22.845 1.0625 -17.565 1.0625 -12.125 1.0625 C-11.795 2.7125 -11.465 4.3625 -11.125 6.0625 C-10.50625 5.258125 -9.8875 4.45375 -9.25 3.625 C-6.19234228 -0.06217549 -4.61621704 -0.05918227 0 0 Z M18.875 17.0625 C18.215 19.0425 17.555 21.0225 16.875 23.0625 C22.485 23.0625 28.095 23.0625 33.875 23.0625 C33.70490117 15.63424211 33.70490117 15.63424211 31.125 13.0625 C25.33492719 10.48913431 22.71463621 12.28889822 18.875 17.0625 Z M47.875 14.0625 C48.205 20.6625 48.535 27.2625 48.875 34.0625 C38.315 34.0625 27.755 34.0625 16.875 34.0625 C19.16733577 40.60231299 19.16733577 40.60231299 23.875 44.0625 C31.04337571 45.01828343 37.53704599 44.5999627 43.875 41.0625 C44.205 43.3725 44.535 45.6825 44.875 48.0625 C48.79332235 44.48936319 51.62872085 40.33584261 54.625 36 C55.68671959 34.47601851 56.74922159 32.95258182 57.8125 31.4296875 C58.33070313 30.68686523 58.84890625 29.94404297 59.3828125 29.17871094 C62.03220828 25.42135448 64.7857619 21.74227837 67.546875 18.06640625 C69.05914946 16.18532942 69.05914946 16.18532942 68.875 14.0625 C61.945 14.0625 55.015 14.0625 47.875 14.0625 Z " fill="#FFFFFF" transform="translate(397.125,66.9375)"/>
<path d="M0 0 C6.6 0 13.2 0 20 0 C23.63 8.25 27.26 16.5 31 25 C32.588125 21.98875 34.17625 18.9775 35.8125 15.875 C36.3072583 14.93769043 36.8020166 14.00038086 37.31176758 13.03466797 C37.71032959 12.27814941 38.1088916 11.52163086 38.51953125 10.7421875 C39.12438354 9.59532471 39.12438354 9.59532471 39.74145508 8.42529297 C41.19087249 5.63217705 42.5927113 2.81457739 44 0 C50.27 0 56.54 0 63 0 C61.45854574 3.85363565 59.8544893 7.26998111 57.8828125 10.89453125 C56.97208984 12.57579102 56.97208984 12.57579102 56.04296875 14.29101562 C55.40383136 15.46494478 54.76450722 16.63877227 54.125 17.8125 C52.27811411 21.21115084 50.43441003 24.60872757 48.63671875 28.03369141 C47 31 47 31 45.42578125 33.14990234 C43.97507575 35.23885252 43.26208793 36.46018784 43 39 C44.61071913 43.70720793 47.12964401 47.800497 49.75 52 C50.4456506 53.16621871 51.13839372 54.33417697 51.828125 55.50390625 C53.52425789 58.3543518 55.24802939 61.18365333 57 64 C57.12552246 63.24581787 57.25104492 62.49163574 57.38037109 61.71459961 C57.55133301 60.72468018 57.72229492 59.73476074 57.8984375 58.71484375 C58.14859619 57.24325806 58.14859619 57.24325806 58.40380859 55.74194336 C59.35188547 51.38164386 60.97453107 48.50534852 64.58203125 45.82421875 C71.79374618 41.64901537 80.79593354 40.81734917 89 41 C87.31192092 36.76915097 87.31192092 36.76915097 84 34 C77.0652973 33.38083012 72.28706252 35.21939864 66 38 C64.515 38.495 64.515 38.495 63 39 C63 34.38 63 29.76 63 25 C69.48136923 22.18733034 74.60257456 20.77368278 81.75 20.6875 C82.53632813 20.65849609 83.32265625 20.62949219 84.1328125 20.59960938 C89.9451881 20.53685117 93.21591056 21.67856211 98 25 C103.927018 31.08720768 104.2913988 37.4949683 104.1953125 45.5546875 C104.1924826 46.45623566 104.18965271 47.35778381 104.18673706 48.28665161 C104.17559439 51.14957276 104.1505008 54.01217434 104.125 56.875 C104.11496255 58.82291213 104.10583804 60.77082919 104.09765625 62.71875 C104.07567443 67.4792887 104.0411855 72.23959027 104 77 C99.05 77 94.1 77 89 77 C88.67 75.35 88.34 73.7 88 72 C87.21625 72.804375 86.4325 73.60875 85.625 74.4375 C81.65206545 78.31584087 79.542651 78.15922265 74.0625 78.1875 C72.81597656 78.20167969 71.56945312 78.21585937 70.28515625 78.23046875 C67 78 67 78 64 76 C63.67 76.33 63.34 76.66 63 77 C61.5112814 77.08669432 60.018555 77.10703494 58.52734375 77.09765625 C57.71773193 77.09515869 56.90812012 77.09266113 56.07397461 77.09008789 C55.03893799 77.08098389 54.00390137 77.07187988 52.9375 77.0625 C49.658125 77.041875 46.37875 77.02125 43 77 C39.04 68.75 35.08 60.5 31 52 C29.411875 55.01125 27.82375 58.0225 26.1875 61.125 C25.6927417 62.06230957 25.1979834 62.99961914 24.68823242 63.96533203 C24.28967041 64.72185059 23.8911084 65.47836914 23.48046875 66.2578125 C23.07723389 67.0223877 22.67399902 67.78696289 22.25854492 68.57470703 C20.80912751 71.36782295 19.4072887 74.18542261 18 77 C11.4 77 4.8 77 -2 77 C-0.41287021 72.23861063 1.30374627 68.43518057 3.84375 64.2109375 C4.39838928 63.27237411 4.39838928 63.27237411 4.9642334 62.31484985 C6.13748145 60.3316744 7.31838698 58.35320065 8.5 56.375 C9.68006971 54.38878222 10.85851667 52.40161711 12.0357666 50.41372681 C12.76613279 49.18157701 13.49838334 47.95054163 14.23278809 46.72079468 C15.16544928 45.15325407 16.08341963 43.57699743 17 42 C17.45431396 41.30334229 17.90862793 40.60668457 18.37670898 39.88891602 C19.23073329 37.93553071 19.23073329 37.93553071 18.23657227 35.73266602 C17.76791748 34.91467529 17.2992627 34.09668457 16.81640625 33.25390625 C16.30368164 32.33971924 15.79095703 31.42553223 15.26269531 30.48364258 C14.42109863 29.037677 14.42109863 29.037677 13.5625 27.5625 C12.44399027 25.57813636 11.32550062 23.59376139 10.20703125 21.609375 C9.38259521 20.16788086 9.38259521 20.16788086 8.54150391 18.69726562 C6.57412043 15.25481192 4.65113014 11.79200112 2.75 8.3125 C2.20859375 7.33925781 1.6671875 6.36601563 1.109375 5.36328125 C0 3 0 3 0 0 Z M74 55.8125 C72.69984873 58.65658091 72.99932357 60.07494581 74 63 C75.92642608 65.33204711 75.92642608 65.33204711 79.3125 65.4375 C83.07158674 65.28465743 83.07158674 65.28465743 85.875 63 C88.6177954 59.12781826 88.76150722 56.69035801 89 52 C83.52423929 51.73288972 78.21924102 51.98881282 74 55.8125 Z " fill="#FFFFFF" transform="translate(206,46)"/>
<path d="M0 0 C7.92 0 15.84 0 24 0 C26.11908552 6.61991095 28.23740639 13.24005637 30.35375977 19.86083984 C31.07400962 22.11326348 31.79470994 24.36554312 32.51586914 26.61767578 C33.55212866 29.85411468 34.58676919 33.09106727 35.62109375 36.328125 C35.94403915 37.33554749 36.26698456 38.34296997 36.59971619 39.38092041 C36.89995193 40.32159363 37.20018768 41.26226685 37.50952148 42.23144531 C37.77377426 43.05751282 38.03802704 43.88358032 38.31028748 44.73468018 C38.94258449 46.81142216 39.4953868 48.88903889 40 51 C41.31150676 46.94444748 42.62221568 42.88863815 43.93215942 38.83258057 C44.39270013 37.40671588 44.85337236 35.98089368 45.31417847 34.55511475 C48.35548213 25.14326729 51.37966058 15.72696606 54.28564453 6.2722168 C55.89203477 1.10796523 55.89203477 1.10796523 57 0 C64.59 0 72.18 0 80 0 C80 25.41 80 50.82 80 77 C74.72 77 69.44 77 64 77 C63.67 60.17 63.34 43.34 63 26 C57.72 42.83 52.44 59.66 47 77 C42.05 77 37.1 77 32 77 C26.72 60.83 21.44 44.66 16 28 C15.67 44.17 15.34 60.34 15 77 C10.05 77 5.1 77 0 77 C0 51.59 0 26.18 0 0 Z M14 20 C15 22 15 22 15 22 Z " fill="#FFFFFF" transform="translate(510,46)"/>
<path d="M0 0 C0.91007813 0.00902344 1.82015625 0.01804687 2.7578125 0.02734375 C3.80582031 0.04474609 3.80582031 0.04474609 4.875 0.0625 C5.37 4.5175 5.37 4.5175 5.875 9.0625 C6.39449219 8.58039063 6.91398438 8.09828125 7.44921875 7.6015625 C8.14660156 6.96992187 8.84398437 6.33828125 9.5625 5.6875 C10.24699219 5.06101562 10.93148437 4.43453125 11.63671875 3.7890625 C18.18635992 -1.26319125 26.00802876 -0.61395931 33.875 0.0625 C39.29855854 1.56004975 42.8649896 4.26877973 45.875 9.0625 C50.11471002 17.85597264 49.875 23.7990968 49.875 34.0625 C39.315 34.0625 28.755 34.0625 17.875 34.0625 C20.0294956 40.6253247 20.0294956 40.6253247 22.66796875 42.48046875 C30.1793187 44.46133803 38.11954012 43.83298924 44.875 40.0625 C44.875 44.6825 44.875 49.3025 44.875 54.0625 C38.8357293 56.67351497 33.92864 57.55785717 27.375 57.5 C26.57191406 57.51998047 25.76882813 57.53996094 24.94140625 57.56054688 C18.18206129 57.55506929 13.15134405 55.70803518 7.88671875 51.45703125 C0.52814258 42.66581194 -0.07644082 33.29444424 0.875 22.0625 C1.89453125 18.60546875 1.89453125 18.60546875 2.875 16.0625 C-3.05457302 15.45678736 -3.05457302 15.45678736 -8.0625 18.3125 C-11.43114891 22.80403188 -11.28220271 26.68499442 -11.44140625 32.234375 C-11.46218735 32.9167926 -11.48296844 33.59921021 -11.50437927 34.30230713 C-11.56952052 36.47227356 -11.62859404 38.64235624 -11.6875 40.8125 C-11.73071897 42.28777221 -11.77433432 43.76303287 -11.81835938 45.23828125 C-11.92590811 48.84623699 -12.02524352 52.45428678 -12.125 56.0625 C-17.405 56.0625 -22.685 56.0625 -28.125 56.0625 C-28.125 37.9125 -28.125 19.7625 -28.125 1.0625 C-22.845 1.0625 -17.565 1.0625 -12.125 1.0625 C-11.795 2.7125 -11.465 4.3625 -11.125 6.0625 C-10.50625 5.258125 -9.8875 4.45375 -9.25 3.625 C-6.19234228 -0.06217549 -4.61621704 -0.05918227 0 0 Z M18.875 17.0625 C18.545 19.0425 18.215 21.0225 17.875 23.0625 C23.155 23.0625 28.435 23.0625 33.875 23.0625 C34.48052183 17.25623094 34.48052183 17.25623094 31.6875 14.1875 C29.10228613 11.94607969 29.10228613 11.94607969 26.375 11.4375 C22.68112043 12.36096989 21.19685665 14.09568317 18.875 17.0625 Z " fill="#FFFFFF" transform="translate(739.125,66.9375)"/>
<path d="M0 0 C5.28 0 10.56 0 16 0 C16 26.73 16 53.46 16 81 C10.72 81 5.44 81 0 81 C-0.33 79.35 -0.66 77.7 -1 76 C-1.94875 76.804375 -2.8975 77.60875 -3.875 78.4375 C-9.58539631 83.27892296 -15.73278137 82.58833811 -23 82 C-28.45884662 79.50999979 -32.43165005 75.34372209 -34.9765625 69.91796875 C-38.62125517 59.64811043 -38.66694303 46.94795751 -34 37 C-30.94992617 31.68547741 -27.12444863 26.69828732 -21 25 C-12.5607161 24.05464264 -8.25565095 24.16289937 -1 29 C-0.67 19.43 -0.34 9.86 0 0 Z M-19 45 C-20.99343293 50.98029879 -20.8221265 57.72936489 -18.6875 63.625 C-17.0559648 66.22051248 -17.0559648 66.22051248 -14 68 C-10.58461856 68.58369443 -10.58461856 68.58369443 -7 68 C-3.35083297 65.16175898 -1.09990502 62.49961143 0 58 C0.61201139 51.58480917 0.17693283 46.64788058 -3 41 C-6.17965922 38.88022719 -8.19939606 38.46605591 -11.99609375 38.54296875 C-15.7419045 39.39727646 -16.9709625 41.86421477 -19 45 Z " fill="#FFFFFF" transform="translate(348,42)"/>
<path d="M0 0 C2.375 2 2.375 2 4 4 C2.76516408 10.3285341 -0.97814416 13.38826672 -6 17 C-9.28809094 18.97420214 -11.95747735 20.09065414 -15.875 19.75 C-18 19 -18 19 -19 18 C-19.49597263 13.12293579 -19.6013033 10.97711786 -17 6.75 C-12.56094023 2.14746211 -6.48234479 -1.17860814 0 0 Z " fill="#FEFAFF" transform="translate(57,47)"/>
<path d="M0 0 C1.52491998 3.04983996 1.23562548 5.6423369 1 9 C-0.125 10.9375 -0.125 10.9375 -2 12 C-5.125 12.25 -5.125 12.25 -8 12 C-9 11 -9 11 -9.25 7.125 C-9.20377533 4.54566338 -9.15273457 3.27152813 -7.875 1 C-5.21065116 -0.42098605 -2.96508915 -0.19767261 0 0 Z " fill="#FEFBFF" transform="translate(25,100)"/>
<path d="M0 0 C4.95 1.98 4.95 1.98 10 4 C7.17446016 8.23830976 4.87819112 7.97715348 0 9 C0 6.03 0 3.06 0 0 Z " fill="#B06EFF" transform="translate(45,15)"/>
</svg>
